<?xml version="1.0" encoding="utf-8"?>

<!-- Generator: Adobe Illustrator 18.0.0, SVG Export Plug-In . SVG Version: 6.00 Build 0)  -->

<svg version="1.2" baseProfile="tiny" id="Layer_1" xmlns="http://www.w3.org/2000/svg" xmlns:xlink="http://www.w3.org/1999/xlink"

 x="0px" y="0px" viewBox="0 0 235.5 382.5" xml:space="preserve">

<!--width='50%' height='100%' preserveAspectRatio='none'>-->

<g>
  <ellipse fill="#EA700C" cx="338.6" cy="341.2" rx="41.6" ry="3.5" id='ellipse'/>

  <path fill="#000" d="M169.1,166.5c-1.1-12.9-18.5-19.1-18.5-19.1c0,0-0.2,0-0.5,0c-5.1-1.7-10.8-1.6-16,1.2c0,0,0,0,0,0

    c-37,26.3-55.3,34.1-61.7,36.3c-2.9,1-5.6,2.2-8,3.9c-11.7,8.1-3.4,14.6,7.1,19c12.3,5.1,25.6,6.1,37.8,3.5c4.5-1,8.7-2.2,12.6-3.5

    c2.3-0.3,4.7-1,7.1-1.8l0,0c0,0,0,0,0,0c0.1,0,0.1,0,0.2-0.1C173.9,189.5,169.2,166.4,169.1,166.5L169.1,166.5z"/>

  <path fill="#000" d="M221.1,41.1c-1.5-3.3-4.4-7.2-9.3-10.7c-4.3-3.6-10.1-6-15.6-7.5c-7.9-2.2-16.2-2.8-24.2-2.2

    C8.7,34.5,8.7,159,8.7,159c1.4,89.4,28.6,148.3,44.8,175.5c4.1,6.9,9.9,13,16.8,17.9c2.9,3.1,8.8,6.3,18.6,9.3

    c28.6,8.9,37.9-4.9,37.9-4.9c13.2-17.8-5.8-37.5-5.8-37.5c-3.9-4.7-9.3-9.7-14.9-14.5c-3.5-3-7.1-5.6-10.5-7.8

    c-51.8-33.4-69-101.9-37.6-154.9c0.6-1,1.2-2,1.8-3c0.9-1.4,1.8-2.8,2.6-4.3c20-33.6,54.2-40.3,79.5-39.9

    c5.8,0.1,11.4-0.3,16.9-1.2c3.9-0.2,9.7-1.4,18.1-3.8c17.6-5,41-18.4,44.9-37.1C222.7,49.9,221.1,41.1,221.1,41.1z"/>

</g>

</svg>
